inDegrees=no
num_controls=7
num_derivatives=13
num_iterations=121
num_multipliers=7
num_parameters=0
num_slacks=7
num_states=26
objective=0.543532
objective_accelerations=0.061004
objective_balance=0.003250
objective_effort=0.047405
objective_height=0.422109
objective_ligament=0.009763
solver_duration=1303.033361
status=Solve_Succeeded
success=true
DataType=double
version=3
OpenSimVersion=4.5
endheader
time	/jointset/ground_pelvis/pelvis_tilt/value	/jointset/ground_pelvis/pelvis_tx/value	/jointset/ground_pelvis/pelvis_ty/value	/jointset/hip_r/hip_flexion_r/value	/jointset/hip_r/hip_adduction_r/value	/jointset/hip_r/hip_rotation_r/value	/jointset/back/lumbar_extension/value	/jointset/patellofemoral_r/patellar_flexion_r/value	/jointset/knee_r/knee_flexion_r/value	/jointset/knee_r/knee_adduction_r/value	/jointset/knee_r/knee_rotation_r/value	/jointset/ankle_r/ankle_angle_r/value	/jointset/subtalar_r/subtalar_angle_r/value	/jointset/ground_pelvis/pelvis_tilt/speed	/jointset/ground_pelvis/pelvis_tx/speed	/jointset/ground_pelvis/pelvis_ty/speed	/jointset/hip_r/hip_flexion_r/speed	/jointset/hip_r/hip_adduction_r/speed	/jointset/hip_r/hip_rotation_r/speed	/jointset/back/lumbar_extension/speed	/jointset/patellofemoral_r/patellar_flexion_r/speed	/jointset/knee_r/knee_flexion_r/speed	/jointset/knee_r/knee_adduction_r/speed	/jointset/knee_r/knee_rotation_r/speed	/jointset/ankle_r/ankle_angle_r/speed	/jointset/subtalar_r/subtalar_angle_r/speed	/forceset/tau_hip_flexion_r	/forceset/tau_hip_adduction_r	/forceset/tau_hip_rotation_r	/forceset/tau_knee_flexion_r	/forceset/tau_ankle_angle_r	/forceset/tau_subtalar_angle_r	/forceset/tau_lumbar_extension	lambda_cid13_p0	lambda_cid14_p0	lambda_cid14_p1	lambda_cid14_p2	lambda_cid14_p3	lambda_cid14_p4	lambda_cid14_p5	/jointset/ground_pelvis/pelvis_tilt/accel	/jointset/ground_pelvis/pelvis_tx/accel	/jointset/ground_pelvis/pelvis_ty/accel	/jointset/hip_r/hip_flexion_r/accel	/jointset/hip_r/hip_adduction_r/accel	/jointset/hip_r/hip_rotation_r/accel	/jointset/back/lumbar_extension/accel	/jointset/patellofemoral_r/patellar_flexion_r/accel	/jointset/knee_r/knee_flexion_r/accel	/jointset/knee_r/knee_adduction_r/accel	/jointset/knee_r/knee_rotation_r/accel	/jointset/ankle_r/ankle_angle_r/accel	/jointset/subtalar_r/subtalar_angle_r/accel	gamma_cid13_p0	gamma_cid14_p0	gamma_cid14_p1	gamma_cid14_p2	gamma_cid14_p3	gamma_cid14_p4	gamma_cid14_p5
1.5	-0.2037445354717202	0.01714458665294545	0.8177411145425043	0.9476491848970839	-0.2437847860160758	-0.08327907354231301	-0.3065090396843824	0.8415441418162658	0.8415441418162758	0.06004353712292528	0.174408957294017	0.2690254887461836	0.03890021127645932	0.4722290950974024	0.1957433560022108	0.5522377487330381	-2.204548183063823	0.0357820067285101	-0.4827912021739915	0.697920328253356	-2.264003612794101	-2.264003612793729	0.1668870681865732	0.001571377834749531	-0.6283144813001473	-0.1140796621291601	-0.1287710321961817	-0.02034605277616357	0.01536585710004629	-0.351430437644803	0.08750887727143172	-0.01020304968694205	0.1657481501831652	-22.74401237282068	-12.58570185918502	-3.200907931862266	-2.952106939447763	-2.925608674228953	-646.5274223324054	57.75868505404993	0.3910117489039891	0.5884665952064655	-0.680900183579401	-1.161941637440062	0.1892595463755329	-0.225220846673568	1.672203485777284	-1.372939602171301	-1.372939602171327	0.6486072413924541	-0.04562892732366463	-0.6868137212623876	0.1278018752003363	1.775815925115889e-07	1.077659693376612e-07	-1.810962462487848e-06	7.940472655410862e-07	1.345107163614604e-07	2.572128213821384e-07	-1.110633372621368e-06
1.51	-0.1990031316580872	0.0191311796115387	0.8232282361177201	0.925548096772873	-0.2434184061718532	-0.08811878195601175	-0.2994476485387742	0.818838483504213	0.8188384835041757	0.06174600404252272	0.1744241021543161	0.2627086514076826	0.03776470585956342	0.4759755765742876	0.2015433863939405	0.5450628302942598	-2.215356046339478	0.03748673025879233	-0.4851285892658771	0.7142439095612984	-2.276796556176173	-2.276796556175797	0.1736074796612637	0.001457079457146651	-0.6349527499594555	-0.1130103256556167	-0.1211286132536394	-0.02239872900970988	0.01480298637129715	-0.3470713445874502	0.09046138162252938	-0.01098591070125705	0.1588592846695716	-24.19169325117062	-11.36948023532551	-3.186632091615401	-3.115805063970468	-3.308286326582705	-640.9806515379918	57.78210480302772	0.3550643466383752	0.5710209055928614	-0.7542909590941873	-0.9931837343512241	0.1599697187209274	-0.2344424600304741	1.595336757290907	-1.182786069489878	-1.18278606948928	0.6836781527915594	0.005738144756744779	-0.6372535501694588	0.09796468321302884	1.870294280272349e-07	1.160429542408252e-07	-1.883453349323956e-06	8.490729727069879e-07	1.349750323229846e-07	2.759394863314523e-07	-1.163477051533277e-06
1.52	-0.1942265434297738	0.02117482280293658	0.8286399078515346	0.903348335003561	-0.2430352008998557	-0.09298115320454498	-0.2922264413192888	0.7960148328856866	0.7960148328856018	0.06351565908732462	0.1744381177183859	0.2563284473602074	0.03664018683735926	0.4792659780334754	0.2071534025631366	0.5371477804527924	-2.224282912084054	0.03914709228372927	-0.4873237691411397	0.729883543028768	-2.287602074088836	-2.287602074088456	0.1803246932273221	0.001345518588957356	-0.6409878230949412	-0.1118823831908057	-0.1134861943110932	-0.02445140524325456	0.01424011564253777	-0.3427122515300968	0.09341388597362735	-0.01176877171556946	0.1519704191559816	-25.62286446572267	-10.15854437124621	-3.170749877999333	-3.282651616268866	-3.695104977079778	-635.5203390402846	57.87262411448483	0.299795745364496	0.5504637506997666	-0.8289264641172398	-0.7857421312242978	0.1803872453064792	-0.1967794033489838	1.535413917682742	-0.975454508289637	-0.9754545082895758	0.6479676596659977	-0.04508142544095953	-0.5661746164979219	0.1395230734538686	1.973807945647112e-07	1.250997079108308e-07	-1.96860517048283e-06	9.061115476667565e-07	1.354805079386172e-07	2.986200740983275e-07	-1.22359921280688e-06
1.53	-0.1894193372130325	0.0232735641800563	0.8339688406044181	0.8810686425001354	-0.2426356802001896	-0.09786484278369199	-0.2848523780503991	0.77309305566716	0.7730930556670782	0.06535256389734201	0.174451114138952	0.24989093399788	0.03552717391687353	0.4820941483189726	0.2125574308386956	0.5285248584598897	-2.231335573002774	0.04074925603332707	-0.4893920981243565	0.7448075276515046	-2.296413268685505	-2.296413268685289	0.1870526517833851	0.001252174255926151	-0.6464070184622763	-0.1107081017559159	-0.1058626794618828	-0.02657438569104244	0.01364428014525544	-0.3385808044257022	0.09649813974394067	-0.01271071433369669	0.1451163086054961	-27.03366547122648	-8.935257824081026	-3.23255357094074	-3.42482284762135	-4.059278839603232	-630.4223634256296	57.87151963030708	0.2621722712395304	0.5297833273795204	-0.8959938379030544	-0.6170086577511669	0.1489305551526545	-0.2082529361118154	1.452653269955005	-0.7829797452803678	-0.7829797453051185	0.6843904742404324	0.008471260101872789	-0.5135689336149892	0.1079789768475289	2.086921628128823e-07	1.349849658956057e-07	-2.067209234359644e-06	9.652887946575092e-07	1.360297156867399e-07	3.255017048588616e-07	-1.291454761589785e-06
1.54	-0.1845862803732168	0.02542522803221072	0.8392081403831674	0.8587280272704121	-0.2422203779399555	-0.1027684943107303	-0.2773327224282046	0.750093360940683	0.7500933609406013	0.06725658439705863	0.174463163555652	0.2434024732945264	0.03442622347040489	0.4844361026483563	0.2177378975700774	0.5192211856259294	-2.236467457343707	0.04230340439757273	-0.4913161587197248	0.7590020136896763	-2.30318557567917	-2.303185575679119	0.1937478311660061	0.001156117816338089	-0.6511772913001588	-0.1094698883873858	-0.09823916461266689	-0.02869736613882452	0.01304844464793296	-0.3344493573213054	0.0995823935142558	-0.01365265695181498	0.1382621980550149	-28.4212935840667	-7.716036315897756	-3.292013556211471	-3.570858237429791	-4.432193450633403	-625.3952507041745	57.94074300138723	0.2025525541418189	0.5057514418643301	-0.9650766323287643	-0.4015868156668531	0.1707841682360598	-0.1679257257793034	1.389514200769789	-0.5676769876889303	-0.5676769876889259	0.6414118249775759	-0.04562384675234014	-0.4363901106073722	0.1523094601819309	2.192335483952817e-07	1.433528934275683e-07	-2.167648763071045e-06	1.015121515687888e-06	1.372631063226695e-07	3.527461931447536e-07	-1.358488389929233e-06
1.55	-0.1797322055114021	0.02762753330501152	0.844351148660619	0.8363455181616846	-0.2417898398983853	-0.1076907678866705	-0.2696748980320071	0.7270360083276343	0.7270360083276217	0.06922749758269363	0.174474329201602	0.2368695289145736	0.03333789942060904	0.4862952874839239	0.222680980558688	0.5092796056954291	-2.239717228157353	0.04379419681721312	-0.4931140090194751	0.7724347561609699	-2.307946959447339	-2.30794695944721	0.2004325714279184	0.001074035549201761	-0.6553009649563381	-0.108185149985914	-0.09068725462293852	-0.03101899962143426	0.01241538443090509	-0.330618650178964	0.1027620780589218	-0.01465542942112528	0.1315049711433698	-29.78404038317869	-6.501712267621524	-3.380744465476326	-3.709947798092492	-4.76913446234659	-620.8894838321055	58.02928092548966	0.165075685240423	0.4822883442048547	-1.02374914338679	-0.2390843387838147	0.1366781310396753	-0.1817106525602044	1.3009378620184	-0.3797177991657742	-0.3797177991541545	0.6813686535806602	0.0102425347718598	-0.3837106346174334	0.1177817981614158	2.288877800366834e-07	1.499725923943343e-07	-2.270203066483166e-06	1.054187717676967e-06	1.392847946336807e-07	3.804087564055144e-07	-1.424575022975134e-06
1.56	-0.1748620439538362	0.02987800973106752	0.8493917310447704	0.8139400289199071	-0.2413447036621773	-0.1126302191597044	-0.2618865894927546	0.7039411721313483	0.7039411721314042	0.07126513087631177	0.1744846226151713	0.2302986768697601	0.03226266790843421	0.487653441798538	0.2273721282211168	0.4987360069658754	-2.241063483953813	0.04522304332531771	-0.4947516981387177	0.7850988423006331	-2.310682292326904	-2.310682292326698	0.2070918527611332	0.0009816713407113432	-0.6587588242722869	-0.1068513808631775	-0.08313534463320382	-0.0333406331040371	0.01178232421383634	-0.32678794303662	0.1059417626035899	-0.01565820189042529	0.1247477442317294	-31.12137860843319	-5.289493314588685	-3.466808354775546	-3.852930442435	-5.122212013436095	-616.4277876776434	58.18822878928792	0.1023464499511442	0.455364376627959	-1.08548039213938	-0.02088381222966041	0.1583949859289104	-0.1358934896777835	1.23578293444371	-0.16246680996816	-0.162466809968157	0.6363200392380547	-0.04768023502316217	-0.3032272425613213	0.1621156044348712	2.372655488863931e-07	1.45837772287524e-07	-2.383566256392165e-06	1.057538924506629e-06	1.531509895544879e-07	3.817180159891327e-07	-1.48391311745794e-06
1.57	-0.169980969912714	0.03217408945066019	0.8543239496863201	0.7915308274177825	-0.2408855974463169	-0.1175855131984556	-0.2539753648819296	0.6808292851618517	0.6808292851619712	0.07336905817781252	0.174494146017834	0.2236966653076971	0.03120105456605316	0.4884765812849004	0.2317963850548325	0.4876194969428856	-2.240457062924721	0.046588016002183	-0.4962788028442783	0.7970094437355273	-2.311351552475231	-2.311351552475151	0.2136866305364104	0.0009176559051456973	-0.6615277483645052	-0.1054604938185951	-0.07565907555429399	-0.03573979749198736	0.01110467265753757	-0.3232084977800943	0.109202978388455	-0.01681258960390697	0.1180878373598512	-32.42805047396445	-4.087843996648157	-3.628609676410024	-3.974654086822005	-5.43452959965366	-612.4484969336188	58.26700931046287	0.05959018377103725	0.4288814064863191	-1.137903592939266	0.1493822959481224	0.1239276025480958	-0.1565474282329512	1.148203328724756	0.03232715676893548	0.03232715675004867	0.6696699475426673	0.01361326640106723	-0.2463094442753588	0.1289047705728398	2.440477392464877e-07	1.282598033387434e-07	-2.510440554422259e-06	1.01624638738702e-06	1.818228177375401e-07	3.500856459763232e-07	-1.534815538736879e-06
1.58	-0.1650942059795694	0.0345129967525386	0.8591423697705276	0.7691372855730434	-0.240413165664892	-0.1225551639777092	-0.2459491333406129	0.6577210021456799	0.6577210021458602	0.07553865591724673	0.1745029043589849	0.2170704476143672	0.03015361599733852	0.4887914202029516	0.2359376446782676	0.4759762954974669	-2.237931552476853	0.04788815643835739	-0.4976230462393483	0.8081002283989199	-2.309961501662205	-2.309961501662251	0.2202259403464913	0.0008286590385538324	-0.663600050525655	-0.1040164261298961	-0.0681828064753784	-0.03813896187993266	0.01042702110120563	-0.3196290525235663	0.1124641941733216	-0.01796697731738135	0.1114279304879776	-33.68644570987735	-2.89402984708624	-3.788148113782794	-4.100890708333615	-5.748108552906608	-608.6007454433311	58.42473624632796	0.0006863362889291541	0.3987649345718153	-1.190818676625168	0.3629340715252776	0.1454285377907387	-0.09932122757966134	1.071819580143409	0.2493953823023027	0.2493953823022839	0.6252264461988024	-0.05267652122840209	-0.1639028563476456	0.1727517332581727	2.520372751915189e-07	1.153540499167987e-07	-2.635288034724349e-06	9.925078752199218e-07	2.051980827169198e-07	3.298582307209368e-07	-1.587286611065412e-06
